<mxfile host="app.diagrams.net" modified="2024-01-06T13:31:02.873Z" agent="Mozilla/5.0 (Windows NT 10.0; Win64; x64) AppleWebKit/537.36 (KHTML, like Gecko) Chrome/120.0.0.0 Safari/537.36 Edg/120.0.0.0" etag="y2GG3G-CU_3PnKiHwvJl" version="22.1.16" type="github">
  <diagram name="第 1 页" id="fLgio12kBrBf4XlUqpdN">
    <mxGraphModel dx="2000" dy="1834" grid="1" gridSize="10" guides="1" tooltips="1" connect="1" arrows="1" fold="1" page="1" pageScale="1" pageWidth="827" pageHeight="1169" math="0" shadow="0">
      <root>
        <mxCell id="0" />
        <mxCell id="1" parent="0" />
        <mxCell id="Qi2PRbjJ71dhXvv92tb2-1" value="子集：{&lt;span style=&quot;background-color: initial;&quot;&gt;}&lt;/span&gt;&lt;br&gt;剩余：{1，2，3}" style="shape=cube;whiteSpace=wrap;html=1;boundedLbl=1;backgroundOutline=1;darkOpacity=0.05;darkOpacity2=0.1;" vertex="1" parent="1">
          <mxGeometry x="480" y="5" width="140" height="70" as="geometry" />
        </mxCell>
        <mxCell id="Qi2PRbjJ71dhXvv92tb2-45" style="rounded=0;orthogonalLoop=1;jettySize=auto;html=1;entryX=0;entryY=0;entryDx=60;entryDy=0;entryPerimeter=0;exitX=0;exitY=0;exitDx=80;exitDy=70;exitPerimeter=0;" edge="1" parent="1" source="Qi2PRbjJ71dhXvv92tb2-5" target="Qi2PRbjJ71dhXvv92tb2-42">
          <mxGeometry relative="1" as="geometry" />
        </mxCell>
        <mxCell id="Qi2PRbjJ71dhXvv92tb2-48" value="取元素3" style="edgeLabel;html=1;align=center;verticalAlign=middle;resizable=0;points=[];" vertex="1" connectable="0" parent="Qi2PRbjJ71dhXvv92tb2-45">
          <mxGeometry x="-0.1151" y="1" relative="1" as="geometry">
            <mxPoint as="offset" />
          </mxGeometry>
        </mxCell>
        <mxCell id="Qi2PRbjJ71dhXvv92tb2-3" value="子集：{1&lt;span style=&quot;background-color: initial;&quot;&gt;}&lt;/span&gt;&lt;br&gt;剩余：{2，3}" style="shape=cube;whiteSpace=wrap;html=1;boundedLbl=1;backgroundOutline=1;darkOpacity=0.05;darkOpacity2=0.1;" vertex="1" parent="1">
          <mxGeometry x="420" y="155" width="140" height="70" as="geometry" />
        </mxCell>
        <mxCell id="Qi2PRbjJ71dhXvv92tb2-4" value="子集：{3&lt;span style=&quot;background-color: initial;&quot;&gt;}&lt;/span&gt;&lt;br&gt;剩余：{}" style="shape=cube;whiteSpace=wrap;html=1;boundedLbl=1;backgroundOutline=1;darkOpacity=0.05;darkOpacity2=0.1;" vertex="1" parent="1">
          <mxGeometry x="880" y="155" width="140" height="70" as="geometry" />
        </mxCell>
        <mxCell id="Qi2PRbjJ71dhXvv92tb2-5" value="子集：{2&lt;span style=&quot;background-color: initial;&quot;&gt;}&lt;/span&gt;&lt;br&gt;剩余：{3}" style="shape=cube;whiteSpace=wrap;html=1;boundedLbl=1;backgroundOutline=1;darkOpacity=0.05;darkOpacity2=0.1;" vertex="1" parent="1">
          <mxGeometry x="650" y="155" width="140" height="70" as="geometry" />
        </mxCell>
        <mxCell id="Qi2PRbjJ71dhXvv92tb2-8" style="rounded=0;orthogonalLoop=1;jettySize=auto;html=1;entryX=0;entryY=0;entryDx=60;entryDy=0;entryPerimeter=0;" edge="1" parent="1" source="Qi2PRbjJ71dhXvv92tb2-1" target="Qi2PRbjJ71dhXvv92tb2-3">
          <mxGeometry relative="1" as="geometry" />
        </mxCell>
        <mxCell id="Qi2PRbjJ71dhXvv92tb2-13" value="取元素1" style="edgeLabel;html=1;align=center;verticalAlign=middle;resizable=0;points=[];" vertex="1" connectable="0" parent="Qi2PRbjJ71dhXvv92tb2-8">
          <mxGeometry x="-0.2153" y="4" relative="1" as="geometry">
            <mxPoint as="offset" />
          </mxGeometry>
        </mxCell>
        <mxCell id="Qi2PRbjJ71dhXvv92tb2-9" style="rounded=0;orthogonalLoop=1;jettySize=auto;html=1;entryX=0;entryY=0;entryDx=60;entryDy=0;entryPerimeter=0;" edge="1" parent="1" source="Qi2PRbjJ71dhXvv92tb2-1" target="Qi2PRbjJ71dhXvv92tb2-5">
          <mxGeometry relative="1" as="geometry" />
        </mxCell>
        <mxCell id="Qi2PRbjJ71dhXvv92tb2-14" value="取元素2" style="edgeLabel;html=1;align=center;verticalAlign=middle;resizable=0;points=[];" vertex="1" connectable="0" parent="Qi2PRbjJ71dhXvv92tb2-9">
          <mxGeometry x="0.0037" y="3" relative="1" as="geometry">
            <mxPoint as="offset" />
          </mxGeometry>
        </mxCell>
        <mxCell id="Qi2PRbjJ71dhXvv92tb2-10" style="rounded=0;orthogonalLoop=1;jettySize=auto;html=1;entryX=0;entryY=0;entryDx=60;entryDy=0;entryPerimeter=0;" edge="1" parent="1" source="Qi2PRbjJ71dhXvv92tb2-1" target="Qi2PRbjJ71dhXvv92tb2-4">
          <mxGeometry relative="1" as="geometry" />
        </mxCell>
        <mxCell id="Qi2PRbjJ71dhXvv92tb2-15" value="取元素3" style="edgeLabel;html=1;align=center;verticalAlign=middle;resizable=0;points=[];" vertex="1" connectable="0" parent="Qi2PRbjJ71dhXvv92tb2-10">
          <mxGeometry x="-0.1591" y="3" relative="1" as="geometry">
            <mxPoint as="offset" />
          </mxGeometry>
        </mxCell>
        <mxCell id="Qi2PRbjJ71dhXvv92tb2-16" value="" style="shape=cube;whiteSpace=wrap;html=1;boundedLbl=1;backgroundOutline=1;darkOpacity=0.05;darkOpacity2=0.1;fillColor=#f8cecc;strokeColor=#b85450;" vertex="1" parent="1">
          <mxGeometry x="-330" y="80" width="70" height="60" as="geometry" />
        </mxCell>
        <mxCell id="Qi2PRbjJ71dhXvv92tb2-17" value="" style="shape=cube;whiteSpace=wrap;html=1;boundedLbl=1;backgroundOutline=1;darkOpacity=0.05;darkOpacity2=0.1;fillColor=#d5e8d4;strokeColor=#82b366;" vertex="1" parent="1">
          <mxGeometry x="-200" y="80" width="70" height="60" as="geometry" />
        </mxCell>
        <mxCell id="Qi2PRbjJ71dhXvv92tb2-18" value="" style="shape=cube;whiteSpace=wrap;html=1;boundedLbl=1;backgroundOutline=1;darkOpacity=0.05;darkOpacity2=0.1;fillColor=#dae8fc;strokeColor=#6c8ebf;" vertex="1" parent="1">
          <mxGeometry x="-70" y="80" width="70" height="70" as="geometry" />
        </mxCell>
        <mxCell id="Qi2PRbjJ71dhXvv92tb2-20" style="edgeStyle=orthogonalEdgeStyle;curved=1;rounded=0;orthogonalLoop=1;jettySize=auto;html=1;entryX=0;entryY=0;entryDx=45;entryDy=60;entryPerimeter=0;" edge="1" parent="1" source="Qi2PRbjJ71dhXvv92tb2-16" target="Qi2PRbjJ71dhXvv92tb2-17">
          <mxGeometry relative="1" as="geometry">
            <Array as="points">
              <mxPoint x="-300" y="160" />
              <mxPoint x="-155" y="160" />
            </Array>
          </mxGeometry>
        </mxCell>
        <mxCell id="Qi2PRbjJ71dhXvv92tb2-28" value="1" style="edgeLabel;html=1;align=center;verticalAlign=middle;resizable=0;points=[];" vertex="1" connectable="0" parent="Qi2PRbjJ71dhXvv92tb2-20">
          <mxGeometry x="0.0847" y="-2" relative="1" as="geometry">
            <mxPoint as="offset" />
          </mxGeometry>
        </mxCell>
        <mxCell id="Qi2PRbjJ71dhXvv92tb2-21" style="edgeStyle=orthogonalEdgeStyle;curved=1;rounded=0;orthogonalLoop=1;jettySize=auto;html=1;entryX=0;entryY=0;entryDx=45;entryDy=60;entryPerimeter=0;" edge="1" parent="1" source="Qi2PRbjJ71dhXvv92tb2-16" target="Qi2PRbjJ71dhXvv92tb2-18">
          <mxGeometry relative="1" as="geometry">
            <Array as="points">
              <mxPoint x="-300" y="250" />
              <mxPoint x="-25" y="250" />
            </Array>
          </mxGeometry>
        </mxCell>
        <mxCell id="Qi2PRbjJ71dhXvv92tb2-29" value="2" style="edgeLabel;html=1;align=center;verticalAlign=middle;resizable=0;points=[];" vertex="1" connectable="0" parent="Qi2PRbjJ71dhXvv92tb2-21">
          <mxGeometry x="-0.033" y="3" relative="1" as="geometry">
            <mxPoint as="offset" />
          </mxGeometry>
        </mxCell>
        <mxCell id="Qi2PRbjJ71dhXvv92tb2-22" style="edgeStyle=orthogonalEdgeStyle;curved=1;rounded=0;orthogonalLoop=1;jettySize=auto;html=1;entryX=0;entryY=0;entryDx=25;entryDy=0;entryPerimeter=0;" edge="1" parent="1" source="Qi2PRbjJ71dhXvv92tb2-17" target="Qi2PRbjJ71dhXvv92tb2-18">
          <mxGeometry relative="1" as="geometry">
            <mxPoint x="-40" y="60" as="targetPoint" />
            <Array as="points">
              <mxPoint x="-165" y="30" />
              <mxPoint x="-40" y="30" />
              <mxPoint x="-40" y="70" />
              <mxPoint x="-45" y="70" />
            </Array>
          </mxGeometry>
        </mxCell>
        <mxCell id="Qi2PRbjJ71dhXvv92tb2-31" value="4" style="edgeLabel;html=1;align=center;verticalAlign=middle;resizable=0;points=[];" vertex="1" connectable="0" parent="Qi2PRbjJ71dhXvv92tb2-22">
          <mxGeometry x="0.1507" y="2" relative="1" as="geometry">
            <mxPoint as="offset" />
          </mxGeometry>
        </mxCell>
        <mxCell id="Qi2PRbjJ71dhXvv92tb2-23" value="" style="shape=cube;whiteSpace=wrap;html=1;boundedLbl=1;backgroundOutline=1;darkOpacity=0.05;darkOpacity2=0.1;fillColor=#f5f5f5;strokeColor=#666666;fontColor=#333333;" vertex="1" parent="1">
          <mxGeometry x="60" y="80" width="70" height="70" as="geometry" />
        </mxCell>
        <mxCell id="Qi2PRbjJ71dhXvv92tb2-24" style="edgeStyle=orthogonalEdgeStyle;curved=1;rounded=0;orthogonalLoop=1;jettySize=auto;html=1;entryX=0;entryY=0;entryDx=45;entryDy=70;entryPerimeter=0;exitX=0.467;exitY=1.038;exitDx=0;exitDy=0;exitPerimeter=0;" edge="1" parent="1" source="Qi2PRbjJ71dhXvv92tb2-16" target="Qi2PRbjJ71dhXvv92tb2-23">
          <mxGeometry relative="1" as="geometry">
            <Array as="points">
              <mxPoint x="-300" y="143" />
              <mxPoint x="-300" y="410" />
              <mxPoint x="105" y="410" />
            </Array>
          </mxGeometry>
        </mxCell>
        <mxCell id="Qi2PRbjJ71dhXvv92tb2-30" value="3" style="edgeLabel;html=1;align=center;verticalAlign=middle;resizable=0;points=[];" vertex="1" connectable="0" parent="Qi2PRbjJ71dhXvv92tb2-24">
          <mxGeometry x="-0.1351" y="7" relative="1" as="geometry">
            <mxPoint as="offset" />
          </mxGeometry>
        </mxCell>
        <mxCell id="Qi2PRbjJ71dhXvv92tb2-25" style="edgeStyle=orthogonalEdgeStyle;curved=1;rounded=0;orthogonalLoop=1;jettySize=auto;html=1;entryX=0;entryY=0;entryDx=25;entryDy=0;entryPerimeter=0;" edge="1" parent="1" source="Qi2PRbjJ71dhXvv92tb2-17" target="Qi2PRbjJ71dhXvv92tb2-23">
          <mxGeometry relative="1" as="geometry">
            <Array as="points">
              <mxPoint x="-165" y="-10" />
              <mxPoint x="85" y="-10" />
            </Array>
          </mxGeometry>
        </mxCell>
        <mxCell id="Qi2PRbjJ71dhXvv92tb2-32" value="5" style="edgeLabel;html=1;align=center;verticalAlign=middle;resizable=0;points=[];" vertex="1" connectable="0" parent="Qi2PRbjJ71dhXvv92tb2-25">
          <mxGeometry x="0.0155" relative="1" as="geometry">
            <mxPoint as="offset" />
          </mxGeometry>
        </mxCell>
        <mxCell id="Qi2PRbjJ71dhXvv92tb2-26" style="edgeStyle=orthogonalEdgeStyle;curved=1;rounded=0;orthogonalLoop=1;jettySize=auto;html=1;entryX=0;entryY=0;entryDx=45;entryDy=70;entryPerimeter=0;" edge="1" parent="1" source="Qi2PRbjJ71dhXvv92tb2-18" target="Qi2PRbjJ71dhXvv92tb2-23">
          <mxGeometry relative="1" as="geometry">
            <Array as="points">
              <mxPoint x="-10" y="250" />
              <mxPoint x="95" y="250" />
              <mxPoint x="95" y="150" />
            </Array>
          </mxGeometry>
        </mxCell>
        <mxCell id="Qi2PRbjJ71dhXvv92tb2-33" value="1" style="edgeLabel;html=1;align=center;verticalAlign=middle;resizable=0;points=[];" vertex="1" connectable="0" parent="Qi2PRbjJ71dhXvv92tb2-26">
          <mxGeometry x="-0.128" y="4" relative="1" as="geometry">
            <mxPoint as="offset" />
          </mxGeometry>
        </mxCell>
        <mxCell id="Qi2PRbjJ71dhXvv92tb2-34" value="" style="shape=crossbar;whiteSpace=wrap;html=1;rounded=1;direction=south;" vertex="1" parent="1">
          <mxGeometry x="-230" y="-40" width="20" height="530" as="geometry" />
        </mxCell>
        <mxCell id="Qi2PRbjJ71dhXvv92tb2-35" value="" style="shape=crossbar;whiteSpace=wrap;html=1;rounded=1;direction=south;" vertex="1" parent="1">
          <mxGeometry x="-110" y="-40" width="20" height="530" as="geometry" />
        </mxCell>
        <mxCell id="Qi2PRbjJ71dhXvv92tb2-36" value="" style="shape=crossbar;whiteSpace=wrap;html=1;rounded=1;direction=south;" vertex="1" parent="1">
          <mxGeometry x="20" y="-40" width="20" height="530" as="geometry" />
        </mxCell>
        <mxCell id="Qi2PRbjJ71dhXvv92tb2-38" value="每一次选择都是考虑当前方块与后面方块的组合，当到了某一步骤，我们发现后面再无方块，那么所有可能的组合就被我们全部找出了" style="text;html=1;strokeColor=none;fillColor=none;align=center;verticalAlign=middle;whiteSpace=wrap;rounded=0;" vertex="1" parent="1">
          <mxGeometry x="-450" y="400" width="150" height="30" as="geometry" />
        </mxCell>
        <mxCell id="Qi2PRbjJ71dhXvv92tb2-50" style="rounded=0;orthogonalLoop=1;jettySize=auto;html=1;" edge="1" parent="1" source="Qi2PRbjJ71dhXvv92tb2-40" target="Qi2PRbjJ71dhXvv92tb2-49">
          <mxGeometry relative="1" as="geometry" />
        </mxCell>
        <mxCell id="Qi2PRbjJ71dhXvv92tb2-51" value="取元素3" style="edgeLabel;html=1;align=center;verticalAlign=middle;resizable=0;points=[];" vertex="1" connectable="0" parent="Qi2PRbjJ71dhXvv92tb2-50">
          <mxGeometry x="0.0172" y="2" relative="1" as="geometry">
            <mxPoint as="offset" />
          </mxGeometry>
        </mxCell>
        <mxCell id="Qi2PRbjJ71dhXvv92tb2-40" value="子集：{1，2&lt;span style=&quot;background-color: initial;&quot;&gt;}&lt;/span&gt;&lt;br&gt;剩余：{3}" style="shape=cube;whiteSpace=wrap;html=1;boundedLbl=1;backgroundOutline=1;darkOpacity=0.05;darkOpacity2=0.1;" vertex="1" parent="1">
          <mxGeometry x="274" y="300" width="140" height="70" as="geometry" />
        </mxCell>
        <mxCell id="Qi2PRbjJ71dhXvv92tb2-41" value="子集：{1，3&lt;span style=&quot;background-color: initial;&quot;&gt;}&lt;/span&gt;&lt;br&gt;剩余：{}" style="shape=cube;whiteSpace=wrap;html=1;boundedLbl=1;backgroundOutline=1;darkOpacity=0.05;darkOpacity2=0.1;" vertex="1" parent="1">
          <mxGeometry x="490" y="300" width="140" height="70" as="geometry" />
        </mxCell>
        <mxCell id="Qi2PRbjJ71dhXvv92tb2-42" value="子集：{2，3&lt;span style=&quot;background-color: initial;&quot;&gt;}&lt;/span&gt;&lt;br&gt;剩余：{}" style="shape=cube;whiteSpace=wrap;html=1;boundedLbl=1;backgroundOutline=1;darkOpacity=0.05;darkOpacity2=0.1;" vertex="1" parent="1">
          <mxGeometry x="710" y="300" width="140" height="70" as="geometry" />
        </mxCell>
        <mxCell id="Qi2PRbjJ71dhXvv92tb2-43" style="rounded=0;orthogonalLoop=1;jettySize=auto;html=1;entryX=0;entryY=0;entryDx=60;entryDy=0;entryPerimeter=0;" edge="1" parent="1" source="Qi2PRbjJ71dhXvv92tb2-3" target="Qi2PRbjJ71dhXvv92tb2-40">
          <mxGeometry relative="1" as="geometry" />
        </mxCell>
        <mxCell id="Qi2PRbjJ71dhXvv92tb2-46" value="取元素2" style="edgeLabel;html=1;align=center;verticalAlign=middle;resizable=0;points=[];" vertex="1" connectable="0" parent="Qi2PRbjJ71dhXvv92tb2-43">
          <mxGeometry x="-0.2439" y="-1" relative="1" as="geometry">
            <mxPoint as="offset" />
          </mxGeometry>
        </mxCell>
        <mxCell id="Qi2PRbjJ71dhXvv92tb2-44" style="rounded=0;orthogonalLoop=1;jettySize=auto;html=1;entryX=0;entryY=0;entryDx=60;entryDy=0;entryPerimeter=0;" edge="1" parent="1" source="Qi2PRbjJ71dhXvv92tb2-3" target="Qi2PRbjJ71dhXvv92tb2-41">
          <mxGeometry relative="1" as="geometry" />
        </mxCell>
        <mxCell id="Qi2PRbjJ71dhXvv92tb2-47" value="取元素3" style="edgeLabel;html=1;align=center;verticalAlign=middle;resizable=0;points=[];" vertex="1" connectable="0" parent="Qi2PRbjJ71dhXvv92tb2-44">
          <mxGeometry x="0.0365" relative="1" as="geometry">
            <mxPoint x="1" as="offset" />
          </mxGeometry>
        </mxCell>
        <mxCell id="Qi2PRbjJ71dhXvv92tb2-49" value="子集：{1，2，3&lt;span style=&quot;background-color: initial;&quot;&gt;}&lt;/span&gt;&lt;br&gt;剩余：{}" style="shape=cube;whiteSpace=wrap;html=1;boundedLbl=1;backgroundOutline=1;darkOpacity=0.05;darkOpacity2=0.1;" vertex="1" parent="1">
          <mxGeometry x="210" y="450" width="140" height="70" as="geometry" />
        </mxCell>
      </root>
    </mxGraphModel>
  </diagram>
</mxfile>
